<?xml version="1.0" standalone="no"?>
<!DOCTYPE svg PUBLIC "-//W3C//DTD SVG 20010904//EN"
 "http://www.w3.org/TR/2001/REC-SVG-20010904/DTD/svg10.dtd">
<svg version="1.0" xmlns="http://www.w3.org/2000/svg"
 width="190.000000pt" height="190.000000pt" viewBox="0 0 190.000000 190.000000"
 preserveAspectRatio="xMidYMid meet">
<metadata>
Created by potrace 1.11, written by Peter Selinger 2001-2013
</metadata>
<g transform="translate(0.000000,190.000000) scale(0.100000,-0.100000)"
fill="#000000" stroke="none">
<path d="M1030 1315 l0 -65 -130 0 -130 0 0 35 0 35 -385 0 -385 0 0 -365 0
-365 230 0 230 0 0 -35 0 -35 385 0 c378 0 385 0 385 20 0 20 7 20 335 20
l335 0 0 410 0 410 -435 0 -435 0 0 -65z"/>
</g>
</svg>
